<?xml version="1.0" encoding="UTF-8" standalone="no"?>
<!-- Created with Inkscape (http://www.inkscape.org/) -->

<svg
   xmlns:dc="http://purl.org/dc/elements/1.1/"
   xmlns:cc="http://creativecommons.org/ns#"
   xmlns:rdf="http://www.w3.org/1999/02/22-rdf-syntax-ns#"
   xmlns:svg="http://www.w3.org/2000/svg"
   xmlns="http://www.w3.org/2000/svg"
   xmlns:sodipodi="http://sodipodi.sourceforge.net/DTD/sodipodi-0.dtd"
   xmlns:inkscape="http://www.inkscape.org/namespaces/inkscape"
   width="13.682721mm"
   height="13.682721mm"
   viewBox="0 0 13.682721 13.682721"
   version="1.1"
   id="svg9824"
   inkscape:version="0.92.4 (5da689c313, 2019-01-14)"
   sodipodi:docname="die_3pip.svg">
  <defs
     id="defs9818" />
  <sodipodi:namedview
     id="base"
     pagecolor="#ffffff"
     bordercolor="#666666"
     borderopacity="1.0"
     inkscape:pageopacity="0.0"
     inkscape:pageshadow="2"
     inkscape:zoom="0.35"
     inkscape:cx="674.42854"
     inkscape:cy="-517.00001"
     inkscape:document-units="mm"
     inkscape:current-layer="layer1"
     showgrid="false"
     inkscape:window-width="1920"
     inkscape:window-height="1027"
     inkscape:window-x="-8"
     inkscape:window-y="389"
     inkscape:window-maximized="1" />
  <metadata
     id="metadata9821">
    <rdf:RDF>
      <cc:Work
         rdf:about="">
        <dc:format>image/svg+xml</dc:format>
        <dc:type
           rdf:resource="http://purl.org/dc/dcmitype/StillImage" />
        <dc:title />
      </cc:Work>
    </rdf:RDF>
  </metadata>
  <g
     inkscape:label="Layer 1"
     inkscape:groupmode="layer"
     id="layer1"
     transform="translate(66.561599,22.049689)">
    <rect
       inkscape:label=""
       y="-21.917397"
       x="-66.429306"
       height="13.418138"
       width="13.418138"
       id="rect4885"
       style="opacity:1;vector-effect:none;fill:none;fill-opacity:1;stroke:#000000;stroke-width:0.26458332;stroke-linecap:butt;stroke-linejoin:miter;stroke-miterlimit:4;stroke-dasharray:none;stroke-dashoffset:0;stroke-opacity:1" />
    <path
       sodipodi:type="star"
       style="opacity:1;vector-effect:none;fill:#000000;fill-opacity:1;stroke:#000000;stroke-width:0.26458332;stroke-linecap:butt;stroke-linejoin:miter;stroke-miterlimit:4;stroke-dasharray:none;stroke-dashoffset:0;stroke-opacity:1"
       id="path8604"
       sodipodi:sides="8"
       sodipodi:cx="-59.720246"
       sodipodi:cy="-15.208321"
       sodipodi:r1="1.2599738"
       sodipodi:r2="1.8529027"
       sodipodi:arg1="0.52359878"
       sodipodi:arg2="0.91629786"
       inkscape:flatsided="false"
       inkscape:rounded="0.18"
       inkscape:randomized="0"
       d="m -58.629076,-14.578334 c -0.07567,0.131072 0.156879,0.747885 0.03681,0.84002 -0.120073,0.09214 -0.655679,-0.292137 -0.80187,-0.252965 -0.146192,0.03917 -0.417904,0.639764 -0.567958,0.620009 -0.150053,-0.01975 -0.257063,-0.670207 -0.388134,-0.745881 -0.131072,-0.07568 -0.747885,0.156879 -0.84002,0.03681 -0.09213,-0.120073 0.292137,-0.655679 0.252965,-0.80187 -0.03917,-0.146192 -0.639764,-0.417904 -0.620009,-0.567958 0.01976,-0.150054 0.670207,-0.257063 0.745881,-0.388135 0.07567,-0.131071 -0.156879,-0.747884 -0.03681,-0.840019 0.120073,-0.09213 0.655679,0.292137 0.80187,0.252965 0.146192,-0.03917 0.417904,-0.639764 0.567958,-0.620009 0.150054,0.01975 0.257063,0.670207 0.388135,0.745881 0.131071,0.07567 0.747884,-0.156879 0.840019,-0.03681 0.09213,0.120073 -0.292137,0.655679 -0.252965,0.80187 0.03917,0.146192 0.639764,0.417904 0.620009,0.567958 -0.01975,0.150054 -0.670207,0.257063 -0.745881,0.388134 z"
       inkscape:transform-center-x="-3.2173358e-06"
       inkscape:transform-center-y="-0.36941773" />
    <path
       inkscape:transform-center-y="-0.36941773"
       inkscape:transform-center-x="-3.2173358e-06"
       d="m -62.003344,-17.952634 c -0.07567,0.131072 0.15688,0.747885 0.03681,0.84002 -0.120073,0.09213 -0.655679,-0.292137 -0.801871,-0.252965 -0.146191,0.03917 -0.417903,0.639764 -0.567957,0.620009 -0.150054,-0.01975 -0.257063,-0.670207 -0.388135,-0.745881 -0.131072,-0.07567 -0.747884,0.156879 -0.840019,0.03681 -0.09214,-0.120073 0.292137,-0.655679 0.252965,-0.80187 -0.03917,-0.146192 -0.639765,-0.417904 -0.62001,-0.567958 0.01975,-0.150054 0.670207,-0.257063 0.745882,-0.388135 0.07567,-0.131071 -0.15688,-0.747884 -0.03681,-0.840019 0.120073,-0.09213 0.655679,0.292137 0.801871,0.252965 0.146191,-0.03917 0.417904,-0.639764 0.567957,-0.620009 0.150054,0.01975 0.257063,0.670207 0.388135,0.745881 0.131072,0.07567 0.747884,-0.156879 0.84002,-0.03681 0.09213,0.120073 -0.292138,0.655679 -0.252966,0.80187 0.03917,0.146192 0.639765,0.417904 0.62001,0.567958 -0.01976,0.150054 -0.670207,0.257063 -0.745882,0.388134 z"
       inkscape:randomized="0"
       inkscape:rounded="0.18"
       inkscape:flatsided="false"
       sodipodi:arg2="0.91629786"
       sodipodi:arg1="0.52359878"
       sodipodi:r2="1.8529027"
       sodipodi:r1="1.2599738"
       sodipodi:cy="-18.58262"
       sodipodi:cx="-63.094514"
       sodipodi:sides="8"
       id="path8614"
       style="opacity:1;vector-effect:none;fill:#000000;fill-opacity:1;stroke:#000000;stroke-width:0.26458332;stroke-linecap:butt;stroke-linejoin:miter;stroke-miterlimit:4;stroke-dasharray:none;stroke-dashoffset:0;stroke-opacity:1"
       sodipodi:type="star" />
    <path
       sodipodi:type="star"
       style="opacity:1;vector-effect:none;fill:#000000;fill-opacity:1;stroke:#000000;stroke-width:0.26458332;stroke-linecap:butt;stroke-linejoin:miter;stroke-miterlimit:4;stroke-dasharray:none;stroke-dashoffset:0;stroke-opacity:1"
       id="path8616"
       sodipodi:sides="8"
       sodipodi:cx="-56.345964"
       sodipodi:cy="-11.834054"
       sodipodi:r1="1.2599738"
       sodipodi:r2="1.8529027"
       sodipodi:arg1="0.52359878"
       sodipodi:arg2="0.91629786"
       inkscape:flatsided="false"
       inkscape:rounded="0.18"
       inkscape:randomized="0"
       d="m -55.254793,-11.204067 c -0.07568,0.131072 0.156879,0.747884 0.03681,0.84002 -0.120073,0.09213 -0.655679,-0.292138 -0.80187,-0.252966 -0.146192,0.03917 -0.417904,0.6397648 -0.567958,0.6200098 -0.150054,-0.019755 -0.257063,-0.6702068 -0.388134,-0.7458818 -0.131072,-0.07567 -0.747885,0.15688 -0.84002,0.03681 -0.09213,-0.120073 0.292137,-0.655679 0.252965,-0.801871 -0.03917,-0.146191 -0.639764,-0.417904 -0.620009,-0.567957 0.01976,-0.150054 0.670207,-0.257063 0.745881,-0.388135 0.07567,-0.131072 -0.156879,-0.747884 -0.03681,-0.84002 0.120073,-0.09213 0.655679,0.292138 0.80187,0.252966 0.146192,-0.03917 0.417904,-0.639765 0.567958,-0.62001 0.150054,0.01975 0.257063,0.670207 0.388134,0.745882 0.131072,0.07567 0.747885,-0.15688 0.84002,-0.03681 0.09213,0.120073 -0.292137,0.655679 -0.252965,0.801871 0.03917,0.146191 0.639764,0.417904 0.620009,0.567957 -0.01975,0.150054 -0.670207,0.257063 -0.745881,0.388135 z"
       inkscape:transform-center-x="-3.2173358e-06"
       inkscape:transform-center-y="-0.36941773" />
  </g>
</svg>
