<?xml version="1.0" encoding="UTF-8" standalone="no"?>
<!-- Created with Inkscape (http://www.inkscape.org/) -->

<svg
   xmlns:dc="http://purl.org/dc/elements/1.1/"
   xmlns:cc="http://creativecommons.org/ns#"
   xmlns:rdf="http://www.w3.org/1999/02/22-rdf-syntax-ns#"
   xmlns:svg="http://www.w3.org/2000/svg"
   xmlns="http://www.w3.org/2000/svg"
   xmlns:sodipodi="http://sodipodi.sourceforge.net/DTD/sodipodi-0.dtd"
   xmlns:inkscape="http://www.inkscape.org/namespaces/inkscape"
   width="13.682721mm"
   height="13.682721mm"
   viewBox="0 0 13.682721 13.682721"
   version="1.1"
   id="svg11026"
   inkscape:version="0.92.4 (5da689c313, 2019-01-14)"
   sodipodi:docname="die_rift.svg">
  <defs
     id="defs11020" />
  <sodipodi:namedview
     id="base"
     pagecolor="#ffffff"
     bordercolor="#666666"
     borderopacity="1.0"
     inkscape:pageopacity="0.0"
     inkscape:pageshadow="2"
     inkscape:zoom="0.35"
     inkscape:cx="-1869.8572"
     inkscape:cy="620.14284"
     inkscape:document-units="mm"
     inkscape:current-layer="layer1"
     showgrid="false"
     inkscape:window-width="1920"
     inkscape:window-height="1027"
     inkscape:window-x="-8"
     inkscape:window-y="389"
     inkscape:window-maximized="1" />
  <metadata
     id="metadata11023">
    <rdf:RDF>
      <cc:Work
         rdf:about="">
        <dc:format>image/svg+xml</dc:format>
        <dc:type
           rdf:resource="http://purl.org/dc/dcmitype/StillImage" />
        <dc:title></dc:title>
      </cc:Work>
    </rdf:RDF>
  </metadata>
  <g
     inkscape:label="Layer 1"
     inkscape:groupmode="layer"
     id="layer1"
     transform="translate(-477.72412,-299.23007)">
    <g
       transform="translate(677.54997,680.42114)"
       id="g11006">
      <rect
         style="opacity:1;vector-effect:none;fill:none;fill-opacity:1;stroke:#000000;stroke-width:0.26458332;stroke-linecap:butt;stroke-linejoin:miter;stroke-miterlimit:4;stroke-dasharray:none;stroke-dashoffset:0;stroke-opacity:1"
         id="rect10964"
         width="13.418138"
         height="13.418138"
         x="-199.69356"
         y="-381.05878"
         inkscape:label="layout" />
      <g
         style="stroke-width:13.64972687"
         id="g10985"
         transform="matrix(0.01938379,0,0,0.01938379,-197.88531,-379.30606)"
         class="">
        <path
           id="path10983"
           d="M 13.03,14.156 V 60.47 l 119.782,144 c 10.884,-12.14 22.31,-24.247 34.282,-36.22 11.13,-11.13 22.32,-21.773 33.53,-31.938 L 54.065,14.156 Z m 432.533,5.97 c -2.307,0.043 -4.7,0.183 -7.188,0.405 -19.907,1.777 -44.893,9.52 -72.656,22.782 -45.372,21.676 -98.133,57.952 -150.564,105.126 l -0.03,-0.032 c -0.96,0.864 -1.918,1.754 -2.876,2.625 -1.927,1.75 -3.856,3.504 -5.78,5.282 -0.034,0.03 -0.063,0.064 -0.095,0.094 -2.795,2.583 -5.585,5.17 -8.375,7.813 -0.107,0.1 -0.205,0.21 -0.313,0.31 -2.9,2.75 -5.796,5.562 -8.687,8.376 -2.902,2.825 -5.797,5.674 -8.688,8.563 -0.078,0.077 -0.17,0.14 -0.25,0.218 l -0.812,0.812 C 116.164,245.746 68.015,312.14 41.5,367.53 c -13.316,27.82 -21.125,52.866 -22.938,72.814 -1.812,19.948 2.15,34.025 10.97,42.844 8.818,8.818 22.895,12.78 42.843,10.968 19.948,-1.812 44.995,-9.59 72.813,-22.906 36.475,-17.46 77.708,-44.312 119.687,-78.625 l -13,-15.625 c -76.125,63.634 -142.623,97.127 -161.97,77.78 -21.25,-21.25 21.226,-99.45 97.407,-184.75 l 0.344,0.408 c 12.673,-14.077 26.176,-28.306 40.438,-42.563 12.84,-12.838 25.715,-25.043 38.47,-36.594 l -0.408,-0.343 c 86.176,-77.464 165.56,-120.875 187,-99.437 19.556,19.554 -14.89,87.342 -79.875,164.5 l 15.658,13.03 c 35.244,-42.798 62.73,-84.904 80.468,-122.03 13.264,-27.763 21.037,-52.75 22.813,-72.656 1.775,-19.907 -2.235,-33.953 -11.064,-42.78 -7.725,-7.726 -19.446,-11.746 -35.594,-11.44 z M 281.03,203.343 c -13.175,11.87 -26.468,24.473 -39.75,37.75 -14.714,14.71 -28.594,29.393 -41.56,43.875 l 66.436,79.874 c -0.017,0.014 -0.045,0.016 -0.062,0.03 l 13.125,15.75 0.03,-0.03 46.03,55.344 c -25.77,6.714 -52.722,5.31 -77.03,-7.657 4.94,6.544 9.707,13.083 15.72,19.095 58.928,58.93 146.78,66.75 196.092,17.438 49.314,-49.314 41.523,-137.165 -17.406,-196.094 -3.683,-3.685 -6.796,-7.407 -10.687,-10.69 -2.463,-2.075 -5.342,-3.71 -7.876,-5.624 14.742,25.24 16.597,52.502 9.625,78.22 z"
           inkscape:connector-curvature="0"
           style="fill:#000000;fill-opacity:1;stroke-width:13.64972687" />
      </g>
    </g>
  </g>
</svg>
