<?xml version="1.0" encoding="UTF-8" standalone="no"?>
<!-- Created with Inkscape (http://www.inkscape.org/) -->

<svg
   xmlns:dc="http://purl.org/dc/elements/1.1/"
   xmlns:cc="http://creativecommons.org/ns#"
   xmlns:rdf="http://www.w3.org/1999/02/22-rdf-syntax-ns#"
   xmlns:svg="http://www.w3.org/2000/svg"
   xmlns="http://www.w3.org/2000/svg"
   xmlns:sodipodi="http://sodipodi.sourceforge.net/DTD/sodipodi-0.dtd"
   xmlns:inkscape="http://www.inkscape.org/namespaces/inkscape"
   width="13.682721mm"
   height="13.682721mm"
   viewBox="0 0 13.682721 13.682721"
   version="1.1"
   id="svg10403"
   inkscape:version="0.92.4 (5da689c313, 2019-01-14)"
   sodipodi:docname="die_4pip.svg">
  <defs
     id="defs10397" />
  <sodipodi:namedview
     id="base"
     pagecolor="#ffffff"
     bordercolor="#666666"
     borderopacity="1.0"
     inkscape:pageopacity="0.0"
     inkscape:pageshadow="2"
     inkscape:zoom="5.6"
     inkscape:cx="35.284296"
     inkscape:cy="-33.233483"
     inkscape:document-units="mm"
     inkscape:current-layer="layer1"
     showgrid="false"
     inkscape:window-width="1080"
     inkscape:window-height="1867"
     inkscape:window-x="3832"
     inkscape:window-y="-8"
     inkscape:window-maximized="1" />
  <metadata
     id="metadata10400">
    <rdf:RDF>
      <cc:Work
         rdf:about="">
        <dc:format>image/svg+xml</dc:format>
        <dc:type
           rdf:resource="http://purl.org/dc/dcmitype/StillImage" />
        <dc:title />
      </cc:Work>
    </rdf:RDF>
  </metadata>
  <g
     inkscape:label="Layer 1"
     inkscape:groupmode="layer"
     id="layer1"
     transform="translate(-98.991969,101.42469)">
    <rect
       style="opacity:1;vector-effect:none;fill:none;fill-opacity:1;stroke:#000000;stroke-width:0.26458332;stroke-linecap:butt;stroke-linejoin:miter;stroke-miterlimit:4;stroke-dasharray:none;stroke-dashoffset:0;stroke-opacity:1"
       id="rect4887"
       width="13.418138"
       height="13.418138"
       x="99.12426"
       y="-101.2924"
       inkscape:label="" />
    <path
       sodipodi:type="star"
       style="opacity:1;vector-effect:none;fill:#000000;fill-opacity:1;stroke:#000000;stroke-width:0.26458332;stroke-linecap:butt;stroke-linejoin:miter;stroke-miterlimit:4;stroke-dasharray:none;stroke-dashoffset:0;stroke-opacity:1"
       id="path8618"
       sodipodi:sides="8"
       sodipodi:cx="102.45905"
       sodipodi:cy="-97.957591"
       sodipodi:r1="1.2599738"
       sodipodi:r2="1.8529027"
       sodipodi:arg1="0.52359878"
       sodipodi:arg2="0.91629786"
       inkscape:flatsided="false"
       inkscape:rounded="0.18"
       inkscape:randomized="0"
       d="m 103.55022,-97.327601 c -0.0757,0.131071 0.15688,0.747884 0.0368,0.840019 -0.12007,0.09214 -0.65568,-0.292137 -0.80187,-0.252965 -0.14619,0.03917 -0.41791,0.639765 -0.56796,0.62001 -0.15005,-0.01976 -0.25706,-0.670208 -0.38813,-0.745882 -0.13108,-0.07567 -0.74789,0.156879 -0.84002,0.03681 -0.0921,-0.120072 0.29213,-0.655678 0.25296,-0.80187 -0.0392,-0.146192 -0.63976,-0.417904 -0.62001,-0.567958 0.0198,-0.150053 0.67021,-0.257062 0.74588,-0.388134 0.0757,-0.131072 -0.15688,-0.747885 -0.0368,-0.84002 0.12007,-0.09213 0.65568,0.292138 0.80187,0.252966 0.14619,-0.03917 0.4179,-0.639765 0.56796,-0.62001 0.15005,0.01976 0.25706,0.670207 0.38813,0.745882 0.13107,0.07567 0.74788,-0.15688 0.84002,-0.03681 0.0921,0.120073 -0.29214,0.655679 -0.25297,0.801871 0.0392,0.146191 0.63977,0.417903 0.62001,0.567957 -0.0198,0.150054 -0.6702,0.257063 -0.74588,0.388135 z"
       inkscape:transform-center-x="-3.2173358e-06"
       inkscape:transform-center-y="-0.36941773" />
    <path
       inkscape:transform-center-y="-0.36941773"
       inkscape:transform-center-x="-3.2173358e-06"
       d="m 110.29877,-90.579066 c -0.0757,0.131072 0.15688,0.747884 0.0368,0.840019 -0.12007,0.09214 -0.65568,-0.292137 -0.80187,-0.252965 -0.14619,0.03917 -0.41791,0.639765 -0.56796,0.62001 -0.15005,-0.01976 -0.25706,-0.670207 -0.38813,-0.745882 -0.13108,-0.07567 -0.74789,0.15688 -0.84002,0.03681 -0.0921,-0.120073 0.29213,-0.655679 0.25296,-0.801871 -0.0392,-0.146191 -0.63976,-0.417904 -0.62001,-0.567957 0.0198,-0.150054 0.67021,-0.257063 0.74588,-0.388135 0.0757,-0.131072 -0.15688,-0.747884 -0.0368,-0.84002 0.12007,-0.09213 0.65568,0.292138 0.80187,0.252966 0.14619,-0.03917 0.4179,-0.639765 0.56796,-0.62001 0.15005,0.01976 0.25706,0.670207 0.38813,0.745882 0.13107,0.07567 0.74788,-0.15688 0.84002,-0.03681 0.0921,0.120073 -0.29214,0.655679 -0.25297,0.801871 0.0392,0.146191 0.63977,0.417903 0.62001,0.567957 -0.0198,0.150054 -0.6702,0.257063 -0.74588,0.388135 z"
       inkscape:randomized="0"
       inkscape:rounded="0.18"
       inkscape:flatsided="false"
       sodipodi:arg2="0.91629786"
       sodipodi:arg1="0.52359878"
       sodipodi:r2="1.8529027"
       sodipodi:r1="1.2599738"
       sodipodi:cy="-91.209056"
       sodipodi:cx="109.2076"
       sodipodi:sides="8"
       id="path8620"
       style="opacity:1;vector-effect:none;fill:#000000;fill-opacity:1;stroke:#000000;stroke-width:0.26458332;stroke-linecap:butt;stroke-linejoin:miter;stroke-miterlimit:4;stroke-dasharray:none;stroke-dashoffset:0;stroke-opacity:1"
       sodipodi:type="star" />
    <path
       inkscape:transform-center-y="0.36941773"
       inkscape:transform-center-x="-3.2173358e-06"
       d="m 103.55022,91.83904 c -0.0757,0.131072 0.15688,0.747884 0.0368,0.84002 -0.12007,0.09213 -0.65568,-0.292138 -0.80187,-0.252966 -0.14619,0.03917 -0.41791,0.639765 -0.56796,0.62001 -0.15005,-0.01976 -0.25706,-0.670207 -0.38813,-0.745882 -0.13108,-0.07567 -0.74789,0.15688 -0.84002,0.03681 -0.0921,-0.120073 0.29213,-0.655679 0.25296,-0.801871 -0.0392,-0.146191 -0.63976,-0.417903 -0.62001,-0.567957 0.0198,-0.150054 0.67021,-0.257063 0.74588,-0.388135 0.0757,-0.131072 -0.15688,-0.747884 -0.0368,-0.840019 0.12007,-0.09214 0.65568,0.292137 0.80187,0.252965 0.14619,-0.03917 0.4179,-0.639765 0.56796,-0.62001 0.15005,0.01976 0.25706,0.670207 0.38813,0.745882 0.13107,0.07567 0.74788,-0.15688 0.84002,-0.03681 0.0921,0.120073 -0.29214,0.655679 -0.25297,0.801871 0.0392,0.146191 0.63977,0.417904 0.62001,0.567957 -0.0198,0.150054 -0.6702,0.257063 -0.74588,0.388135 z"
       inkscape:randomized="0"
       inkscape:rounded="0.18"
       inkscape:flatsided="false"
       sodipodi:arg2="0.91629786"
       sodipodi:arg1="0.52359878"
       sodipodi:r2="1.8529027"
       sodipodi:r1="1.2599738"
       sodipodi:cy="91.209056"
       sodipodi:cx="102.45905"
       sodipodi:sides="8"
       id="path8622"
       style="opacity:1;vector-effect:none;fill:#000000;fill-opacity:1;stroke:#000000;stroke-width:0.26458332;stroke-linecap:butt;stroke-linejoin:miter;stroke-miterlimit:4;stroke-dasharray:none;stroke-dashoffset:0;stroke-opacity:1"
       sodipodi:type="star"
       transform="scale(1,-1)" />
    <path
       sodipodi:type="star"
       style="opacity:1;vector-effect:none;fill:#000000;fill-opacity:1;stroke:#000000;stroke-width:0.26458332;stroke-linecap:butt;stroke-linejoin:miter;stroke-miterlimit:4;stroke-dasharray:none;stroke-dashoffset:0;stroke-opacity:1"
       id="path8624"
       sodipodi:sides="8"
       sodipodi:cx="109.2076"
       sodipodi:cy="97.957591"
       sodipodi:r1="1.2599738"
       sodipodi:r2="1.8529027"
       sodipodi:arg1="0.52359878"
       sodipodi:arg2="0.91629786"
       inkscape:flatsided="false"
       inkscape:rounded="0.18"
       inkscape:randomized="0"
       d="m 110.29877,98.587575 c -0.0757,0.131072 0.15688,0.747885 0.0368,0.84002 -0.12007,0.09213 -0.65568,-0.292138 -0.80187,-0.252966 -0.14619,0.03917 -0.41791,0.639765 -0.56796,0.62001 -0.15005,-0.01976 -0.25706,-0.670207 -0.38813,-0.745882 -0.13108,-0.07567 -0.74789,0.15688 -0.84002,0.03681 -0.0921,-0.120073 0.29213,-0.655679 0.25296,-0.801871 -0.0392,-0.146191 -0.63976,-0.417903 -0.62001,-0.567957 0.0198,-0.150054 0.67021,-0.257063 0.74588,-0.388135 0.0757,-0.131071 -0.15688,-0.747884 -0.0368,-0.840019 0.12007,-0.09214 0.65568,0.292137 0.80187,0.252965 0.14619,-0.03917 0.4179,-0.639765 0.56796,-0.62001 0.15005,0.01976 0.25706,0.670208 0.38813,0.745882 0.13107,0.07567 0.74788,-0.156879 0.84002,-0.03681 0.0921,0.120072 -0.29214,0.655678 -0.25297,0.80187 0.0392,0.146192 0.63977,0.417904 0.62001,0.567958 -0.0198,0.150053 -0.6702,0.257062 -0.74588,0.388134 z"
       inkscape:transform-center-x="-3.2173358e-06"
       inkscape:transform-center-y="0.36941773"
       transform="scale(1,-1)" />
  </g>
</svg>
