<?xml version="1.0" encoding="UTF-8" standalone="no"?>
<!-- Created with Inkscape (http://www.inkscape.org/) -->

<svg
   xmlns:dc="http://purl.org/dc/elements/1.1/"
   xmlns:cc="http://creativecommons.org/ns#"
   xmlns:rdf="http://www.w3.org/1999/02/22-rdf-syntax-ns#"
   xmlns:svg="http://www.w3.org/2000/svg"
   xmlns="http://www.w3.org/2000/svg"
   xmlns:sodipodi="http://sodipodi.sourceforge.net/DTD/sodipodi-0.dtd"
   xmlns:inkscape="http://www.inkscape.org/namespaces/inkscape"
   width="13.682721mm"
   height="13.682721mm"
   viewBox="0 0 13.682721 13.682721"
   version="1.1"
   id="svg9248"
   inkscape:version="0.92.4 (5da689c313, 2019-01-14)"
   sodipodi:docname="die_2pip.svg">
  <defs
     id="defs9242" />
  <sodipodi:namedview
     id="base"
     pagecolor="#ffffff"
     bordercolor="#666666"
     borderopacity="1.0"
     inkscape:pageopacity="0.0"
     inkscape:pageshadow="2"
     inkscape:zoom="0.35"
     inkscape:cx="1080.1428"
     inkscape:cy="-559.85716"
     inkscape:document-units="mm"
     inkscape:current-layer="layer1"
     showgrid="false"
     inkscape:window-width="1920"
     inkscape:window-height="1027"
     inkscape:window-x="-8"
     inkscape:window-y="389"
     inkscape:window-maximized="1" />
  <metadata
     id="metadata9245">
    <rdf:RDF>
      <cc:Work
         rdf:about="">
        <dc:format>image/svg+xml</dc:format>
        <dc:type
           rdf:resource="http://purl.org/dc/dcmitype/StillImage" />
        <dc:title />
      </cc:Work>
    </rdf:RDF>
  </metadata>
  <g
     inkscape:label="Layer 1"
     inkscape:groupmode="layer"
     id="layer1"
     transform="translate(220.77588,151.31755)">
    <rect
       style="opacity:1;vector-effect:none;fill:none;fill-opacity:1;stroke:#000000;stroke-width:0.26458332;stroke-linecap:butt;stroke-linejoin:miter;stroke-miterlimit:4;stroke-dasharray:none;stroke-dashoffset:0;stroke-opacity:1"
       id="rect4883"
       width="13.418138"
       height="13.418138"
       x="-220.64359"
       y="-151.18526"
       inkscape:label="" />
    <path
       inkscape:transform-center-y="-0.36941773"
       inkscape:transform-center-x="-3.2173358e-06"
       d="m -215.22418,-146.34035 c -0.0757,0.13107 0.15688,0.74788 0.0368,0.84002 -0.12007,0.0921 -0.65568,-0.29214 -0.80187,-0.25297 -0.14619,0.0392 -0.4179,0.63977 -0.56796,0.62001 -0.15005,-0.0198 -0.25706,-0.6702 -0.38813,-0.74588 -0.13107,-0.0757 -0.74788,0.15688 -0.84002,0.0368 -0.0921,-0.12007 0.29214,-0.65568 0.25297,-0.80187 -0.0392,-0.14619 -0.63977,-0.41791 -0.62001,-0.56796 0.0197,-0.15005 0.6702,-0.25706 0.74588,-0.38813 0.0757,-0.13108 -0.15688,-0.74789 -0.0368,-0.84002 0.12007,-0.0921 0.65568,0.29213 0.80187,0.25296 0.14619,-0.0392 0.41791,-0.63976 0.56796,-0.62001 0.15005,0.0198 0.25706,0.67021 0.38813,0.74588 0.13108,0.0757 0.74789,-0.15688 0.84002,-0.0368 0.0921,0.12007 -0.29213,0.65568 -0.25296,0.80187 0.0392,0.14619 0.63976,0.4179 0.62001,0.56796 -0.0198,0.15005 -0.67021,0.25706 -0.74588,0.38813 z"
       inkscape:randomized="0"
       inkscape:rounded="0.18"
       inkscape:flatsided="false"
       sodipodi:arg2="0.91629786"
       sodipodi:arg1="0.52359878"
       sodipodi:r2="1.8529027"
       sodipodi:r1="1.2599738"
       sodipodi:cy="-146.97033"
       sodipodi:cx="-216.31535"
       sodipodi:sides="8"
       id="path4891"
       style="opacity:1;vector-effect:none;fill:#000000;fill-opacity:1;stroke:#000000;stroke-width:0.26458332;stroke-linecap:butt;stroke-linejoin:miter;stroke-miterlimit:4;stroke-dasharray:none;stroke-dashoffset:0;stroke-opacity:1"
       sodipodi:type="star" />
    <path
       sodipodi:type="star"
       style="opacity:1;vector-effect:none;fill:#000000;fill-opacity:1;stroke:#000000;stroke-width:0.26458332;stroke-linecap:butt;stroke-linejoin:miter;stroke-miterlimit:4;stroke-dasharray:none;stroke-dashoffset:0;stroke-opacity:1"
       id="path4893"
       sodipodi:sides="8"
       sodipodi:cx="-211.5537"
       sodipodi:cy="-141.98204"
       sodipodi:r1="1.2599738"
       sodipodi:r2="1.8529027"
       sodipodi:arg1="0.52359878"
       sodipodi:arg2="0.91629786"
       inkscape:flatsided="false"
       inkscape:rounded="0.18"
       inkscape:randomized="0"
       d="m -210.46253,-141.35205 c -0.0757,0.13107 0.15688,0.74788 0.0368,0.84002 -0.12007,0.0921 -0.65568,-0.29214 -0.80187,-0.25297 -0.14619,0.0392 -0.4179,0.63977 -0.56796,0.62001 -0.15005,-0.0197 -0.25706,-0.67021 -0.38813,-0.74588 -0.13107,-0.0757 -0.74789,0.15688 -0.84002,0.0368 -0.0921,-0.12008 0.29214,-0.65568 0.25296,-0.80188 -0.0392,-0.14619 -0.63976,-0.4179 -0.62001,-0.56795 0.0198,-0.15006 0.67021,-0.25707 0.74589,-0.38814 0.0757,-0.13107 -0.15688,-0.74788 -0.0368,-0.84002 0.12007,-0.0921 0.65568,0.29214 0.80187,0.25297 0.14619,-0.0392 0.4179,-0.63977 0.56796,-0.62001 0.15005,0.0197 0.25706,0.67021 0.38813,0.74588 0.13107,0.0757 0.74789,-0.15688 0.84002,-0.0368 0.0921,0.12008 -0.29214,0.65568 -0.25296,0.80187 0.0392,0.1462 0.63976,0.41791 0.62001,0.56796 -0.0198,0.15006 -0.67021,0.25706 -0.74589,0.38814 z"
       inkscape:transform-center-x="-3.2173358e-06"
       inkscape:transform-center-y="-0.36941773" />
  </g>
</svg>
