<?xml version="1.0" encoding="UTF-8" standalone="no"?>
<!-- Created with Inkscape (http://www.inkscape.org/) -->

<svg
   xmlns:dc="http://purl.org/dc/elements/1.1/"
   xmlns:cc="http://creativecommons.org/ns#"
   xmlns:rdf="http://www.w3.org/1999/02/22-rdf-syntax-ns#"
   xmlns:svg="http://www.w3.org/2000/svg"
   xmlns="http://www.w3.org/2000/svg"
   xmlns:sodipodi="http://sodipodi.sourceforge.net/DTD/sodipodi-0.dtd"
   xmlns:inkscape="http://www.inkscape.org/namespaces/inkscape"
   width="11.132219mm"
   height="12.16268mm"
   viewBox="0 0 11.132219 12.16268"
   version="1.1"
   id="svg4328"
   inkscape:version="0.92.4 (5da689c313, 2019-01-14)"
   sodipodi:docname="mitigation.svg">
  <defs
     id="defs4322" />
  <sodipodi:namedview
     id="base"
     pagecolor="#ffffff"
     bordercolor="#666666"
     borderopacity="1.0"
     inkscape:pageopacity="0.0"
     inkscape:pageshadow="2"
     inkscape:zoom="0.35"
     inkscape:cx="342.46583"
     inkscape:cy="502.98458"
     inkscape:document-units="mm"
     inkscape:current-layer="layer1"
     showgrid="false"
     inkscape:window-width="1920"
     inkscape:window-height="1027"
     inkscape:window-x="-8"
     inkscape:window-y="389"
     inkscape:window-maximized="1" />
  <metadata
     id="metadata4325">
    <rdf:RDF>
      <cc:Work
         rdf:about="">
        <dc:format>image/svg+xml</dc:format>
        <dc:type
           rdf:resource="http://purl.org/dc/dcmitype/StillImage" />
        <dc:title></dc:title>
      </cc:Work>
    </rdf:RDF>
  </metadata>
  <g
     inkscape:label="Layer 1"
     inkscape:groupmode="layer"
     id="layer1"
     transform="translate(107.61968,-269.75199)">
    <path
       style="fill:#000000;fill-opacity:1;stroke-width:0.26458338"
       inkscape:connector-curvature="0"
       d="m -104.67949,269.75199 -1.79018,0.3579 c -0.003,1.547 -0.046,3.15158 -1.15001,4.41676 1.55723,1.05386 3.7943,1.42894 5.32799,1.11462 v -2.61488 l -3.66764,-1.62649 0.19568,-0.43424 3.70995,1.6487 3.709939,-1.6487 0.19569,0.43424 -3.667649,1.62649 v 2.61488 c 1.53369,0.31432 3.770769,-0.0607 5.328259,-1.11462 -1.10532,-1.26518 -1.14763,-2.86976 -1.15027,-4.41676 l -1.79018,-0.3579 c -0.34112,0.36662 -0.54473,0.74353 -0.869979,1.07051 -0.35697,0.35447 -0.86997,0.598 -1.75581,0.598 -0.88583,0 -1.39883,-0.24353 -1.75581,-0.598 -0.32525,-0.32698 -0.52886,-0.70389 -0.86998,-1.07051 z m -2.71887,5.46931 c 0.58387,1.27047 1.11564,2.73901 1.29095,4.22342 l 1.7188,0.6022 c 0.11108,-1.39194 0.74568,-2.74693 1.68442,-3.85891 -1.45702,0.16641 -3.24456,-0.15325 -4.69417,-0.96671 z m 10.688769,0 c -1.44906,0.81352 -3.2366,1.13312 -4.693609,0.96671 0.93871,1.11198 1.573349,2.46697 1.684409,3.85891 l 1.72409,-0.60485 c 0.17452,-1.50024 0.70337,-2.95296 1.28511,-4.22077 z m -5.344109,0.95351 c -1.07095,1.13838 -1.7902,2.58582 -1.86951,4.03324 l 1.63152,0.57052 v -2.8341 h 0.47597 v 2.8341 l 1.63154,-0.57052 c -0.0819,-1.44742 -0.79859,-2.89486 -1.86952,-4.03324 z m 4.011389,3.7876 -2.927219,1.02217 v 0.49656 l 2.914009,-1.1648 c 0.003,-0.1188 0.008,-0.23508 0.0129,-0.35393 z m -8.020139,0.003 c 0.008,0.1188 0.0113,0.23508 0.0129,0.35393 l 2.91137,1.16216 v -0.49391 z m 4.61694,1.18593 -0.60819,0.21395 -0.60819,-0.21131 v 0.5177 l 0.60819,0.24299 0.60819,-0.24299 z"
       id="path913" />
  </g>
</svg>
