<?xml version="1.0" encoding="UTF-8" standalone="no"?>
<!-- Created with Inkscape (http://www.inkscape.org/) -->

<svg
   xmlns:dc="http://purl.org/dc/elements/1.1/"
   xmlns:cc="http://creativecommons.org/ns#"
   xmlns:rdf="http://www.w3.org/1999/02/22-rdf-syntax-ns#"
   xmlns:svg="http://www.w3.org/2000/svg"
   xmlns="http://www.w3.org/2000/svg"
   xmlns:sodipodi="http://sodipodi.sourceforge.net/DTD/sodipodi-0.dtd"
   xmlns:inkscape="http://www.inkscape.org/namespaces/inkscape"
   width="210mm"
   height="297mm"
   viewBox="0 0 210 297"
   version="1.1"
   id="svg8"
   inkscape:version="0.92.4 (5da689c313, 2019-01-14)"
   sodipodi:docname="scratch.svg">
  <defs
     id="defs2" />
  <sodipodi:namedview
     id="base"
     pagecolor="#ffffff"
     bordercolor="#666666"
     borderopacity="1.0"
     inkscape:pageopacity="0.0"
     inkscape:pageshadow="2"
     inkscape:zoom="1.979899"
     inkscape:cx="-1192.4411"
     inkscape:cy="2279.6896"
     inkscape:document-units="mm"
     inkscape:current-layer="g11589"
     showgrid="false"
     showborder="false"
     inkscape:window-width="1920"
     inkscape:window-height="1027"
     inkscape:window-x="-8"
     inkscape:window-y="389"
     inkscape:window-maximized="1"
     inkscape:snap-global="true" />
  <metadata
     id="metadata5">
    <rdf:RDF>
      <cc:Work
         rdf:about="">
        <dc:format>image/svg+xml</dc:format>
        <dc:type
           rdf:resource="http://purl.org/dc/dcmitype/StillImage" />
        <dc:title />
      </cc:Work>
    </rdf:RDF>
  </metadata>
  <g
     inkscape:label="Layer 1"
     inkscape:groupmode="layer"
     id="layer1">
    <path
       id="path836"
       d="m -341.71861,-351.1913 c -3.50501,0 -6.3463,2.83806 -6.3463,6.33908 0,3.50102 2.84129,6.33908 6.3463,6.33908 3.50501,0 6.34631,-2.83806 6.34631,-6.33908 0,-3.50102 -2.8413,-6.33908 -6.34631,-6.33908 z m 0,1.58477 c 2.62869,0 4.75974,2.12862 4.75974,4.75431 0,2.62569 -2.13105,4.75431 -4.75974,4.75431 -2.6287,0 -4.75973,-2.12862 -4.75973,-4.75431 0,-2.62569 2.13103,-4.75431 4.75973,-4.75431 z m -0.39664,0.79239 a 0.39664442,0.39619259 0 0 0 -0.39664,0.39619 v 0.79238 a 0.39664442,0.39619259 0 0 0 0.39664,0.3962 h 0.79329 a 0.39664442,0.39619259 0 0 0 0.39664,-0.3962 v -0.79238 a 0.39664442,0.39619259 0 0 0 -0.39664,-0.39619 z m 0.44291,2.37794 a 1.5865777,1.5847704 0 0 0 -1.63284,1.58398 1.5865777,1.5847704 0 0 0 3.17314,0 1.5865777,1.5847704 0 0 0 -1.5403,-1.58398 z m -3.61607,0.7916 a 0.39664442,0.39619259 0 0 0 -0.39664,0.39619 v 0.79238 a 0.39664442,0.39619259 0 0 0 0.39664,0.39619 h 0.79328 a 0.39664442,0.39619259 0 0 0 0.39665,-0.39619 v -0.79238 a 0.39664442,0.39619259 0 0 0 -0.39665,-0.39619 z m 6.3463,0 a 0.39664442,0.39619259 0 0 0 -0.39664,0.39619 v 0.79238 a 0.39664442,0.39619259 0 0 0 0.39664,0.39619 h 0.79331 a 0.39664442,0.39619259 0 0 0 0.39664,-0.39619 v -0.79238 a 0.39664442,0.39619259 0 0 0 -0.39664,-0.39619 z m -3.17314,3.16953 a 0.39664442,0.39619259 0 0 0 -0.39664,0.3962 v 0.79238 a 0.39664442,0.39619259 0 0 0 0.39664,0.39619 h 0.79329 a 0.39664442,0.39619259 0 0 0 0.39664,-0.39619 v -0.79238 a 0.39664442,0.39619259 0 0 0 -0.39664,-0.3962 z"
       inkscape:connector-curvature="0"
       style="fill:#000000;fill-opacity:1;stroke-width:0.26458335" />
    <path
       style="fill:#000000;fill-opacity:1;stroke-width:0.26458335"
       inkscape:connector-curvature="0"
       d="m -291.52652,-341.17385 -4.35066,0.033 c -0.4089,0.73914 -0.89677,1.39116 -1.43224,2.0021 0.15889,0.0396 0.31926,0.079 0.4767,0.11881 l 0.362,0.0911 -0.22551,0.29726 c -1.33312,1.75653 -1.1802,3.75292 -0.72348,5.64426 l -0.48047,0.11575 c -0.44524,-1.84407 -0.62214,-3.91418 0.59868,-5.75642 -2.32885,-0.57836 -4.85547,-1.14722 -6.69997,-2.36079 -0.0468,0.12911 -0.0267,0.26907 0.0599,0.4551 0.0642,0.13796 0.1723,0.29168 0.32101,0.4521 1.40576,1.00206 3.4497,1.74182 5.0183,1.98541 l -0.0758,0.48777 c -1.63551,-0.254 -3.69255,-0.98777 -5.18377,-2.03978 0.0161,0.15728 0.0691,0.32732 0.16888,0.51134 0.18294,0.33698 0.50969,0.69967 0.94401,1.02764 0.0222,0.0167 0.0449,0.0335 0.0676,0.0501 1.12528,0.59896 2.4776,1.02783 3.72151,1.11367 l -0.034,0.49244 c -1.61691,-0.11156 -3.34055,-0.74536 -4.64529,-1.60444 0.0272,0.12991 0.086,0.2746 0.18206,0.43264 0.1948,0.32064 0.53091,0.6731 0.95803,0.99511 1.03825,0.47114 2.15785,0.86998 3.4011,0.96335 l -0.037,0.49223 c -1.48353,-0.1114 -2.78003,-0.6271 -3.94273,-1.18087 0.0979,0.5183 0.45707,0.9086 1.02931,1.23625 0.70916,0.40604 1.72568,0.67152 2.79825,0.82746 l 0.19719,0.0287 0.0145,0.19855 c 0.0283,0.40965 0.12074,0.60305 0.2576,0.83654 l -0.42652,0.24928 c -0.13039,-0.22255 -0.24554,-0.48731 -0.29859,-0.85673 -0.85422,-0.13442 -1.67654,-0.33321 -2.36308,-0.6409 -0.17029,0.20471 -0.33805,0.41574 -0.50225,0.63479 0.4367,0.6275 0.80914,1.13669 1.39565,1.73742 l 0.71648,-0.25005 0.24706,-0.0858 0.0718,0.25171 c 0.39838,1.40125 1.57504,2.4713 3.00377,3.00613 1.26941,0.47517 2.72372,0.51857 3.96812,0.0161 -1.81592,-0.99255 -3.03082,-3.26748 -3.59049,-5.27927 l -0.0298,-0.10979 0.0628,-0.0942 c 1.14687,-1.71339 3.19144,-3.15033 5.00013,-3.80828 v -2.71646 z"
       id="path875" />
    <path
       style="fill:#000000;fill-opacity:1;stroke-width:0.26458335"
       inkscape:connector-curvature="0"
       d="m -316.18679,-330.53069 c -0.37668,0 -1.36349,0.31552 -1.36349,0.70569 v 0.7057 h -1.35105 c -0.75337,0 -1.36345,0.63102 -1.36345,1.41146 v 8.44381 c 0,0.78049 0.61008,1.41151 1.36348,1.41151 h 6.79253 c 0.75336,-7e-5 1.36345,-0.63107 1.36345,-1.41151 v -8.44381 c 0,-0.78043 -0.61009,-1.41143 -1.36347,-1.41143 h -1.35105 v -0.70573 c 0,-0.39022 -0.98677,-0.70569 -1.36345,-0.70569 h -1.36345 z m 0.68174,2.82288 v 3.5162 h 2.71455 l -2.71455,4.92767 v -3.51622 h -2.71456 z"
       id="path894" />
    <path
       style="fill:#000000;fill-opacity:1;stroke-width:0.26458335"
       inkscape:connector-curvature="0"
       d="m -284.03929,-329.04089 -1.79018,0.3579 c -0.003,1.547 -0.046,3.15158 -1.15001,4.41676 1.55723,1.05386 3.7943,1.42894 5.32799,1.11462 v -2.61488 l -3.66764,-1.62649 0.19568,-0.43424 3.70995,1.6487 3.70994,-1.6487 0.19569,0.43424 -3.66765,1.62649 v 2.61488 c 1.53369,0.31432 3.77077,-0.0607 5.32826,-1.11462 -1.10532,-1.26518 -1.14763,-2.86976 -1.15027,-4.41676 l -1.79018,-0.3579 c -0.34112,0.36662 -0.54473,0.74353 -0.86998,1.07051 -0.35697,0.35447 -0.86997,0.598 -1.75581,0.598 -0.88583,0 -1.39883,-0.24353 -1.75581,-0.598 -0.32525,-0.32698 -0.52886,-0.70389 -0.86998,-1.07051 z m -2.71887,5.46931 c 0.58387,1.27047 1.11564,2.73901 1.29095,4.22342 l 1.7188,0.6022 c 0.11108,-1.39194 0.74568,-2.74693 1.68442,-3.85891 -1.45702,0.16641 -3.24456,-0.15325 -4.69417,-0.96671 z m 10.68877,0 c -1.44906,0.81352 -3.2366,1.13312 -4.69361,0.96671 0.93871,1.11198 1.57335,2.46697 1.68441,3.85891 l 1.72409,-0.60485 c 0.17452,-1.50024 0.70337,-2.95296 1.28511,-4.22077 z m -5.34411,0.95351 c -1.07095,1.13838 -1.7902,2.58582 -1.86951,4.03324 l 1.63152,0.57052 v -2.8341 h 0.47597 v 2.8341 l 1.63154,-0.57052 c -0.0819,-1.44742 -0.79859,-2.89486 -1.86952,-4.03324 z m 4.01139,3.7876 -2.92722,1.02217 v 0.49656 l 2.91401,-1.1648 c 0.003,-0.1188 0.008,-0.23508 0.0129,-0.35393 z m -8.02014,0.003 c 0.008,0.1188 0.0113,0.23508 0.0129,0.35393 l 2.91137,1.16216 v -0.49391 z m 4.61694,1.18593 -0.60819,0.21395 -0.60819,-0.21131 v 0.5177 l 0.60819,0.24299 0.60819,-0.24299 z"
       id="path913" />
    <text
       xml:space="preserve"
       style="font-style:normal;font-variant:normal;font-weight:bold;font-stretch:normal;font-size:4.23333311px;line-height:1.25;font-family:sans-serif;-inkscape-font-specification:'sans-serif Bold';text-align:center;letter-spacing:0px;word-spacing:0px;text-anchor:middle;fill:#000000;fill-opacity:1;stroke:none;stroke-width:0.26458332"
       x="1201.6438"
       y="397.49335"
       id="text1003"><tspan
         sodipodi:role="line"
         id="tspan1001"
         x="1201.6438"
         y="401.35556"
         style="stroke-width:0.26458332" /></text>
    <rect
       rx="0.058849175"
       y="-328.23962"
       x="-266.59653"
       height="43.489964"
       width="43.539562"
       id="rect1009"
       style="opacity:1;vector-effect:none;fill:none;fill-opacity:1;stroke:#000000;stroke-width:0.5291667;stroke-linecap:butt;stroke-linejoin:miter;stroke-miterlimit:4;stroke-dasharray:none;stroke-dashoffset:0;stroke-opacity:1" />
    <path
       id="path1025"
       d="m -326.27552,-343.84427 h 3.17317 l -2e-5,-5.1505 3.17314,7.52766 h -3.17314 l 2e-5,5.1505 z"
       inkscape:connector-curvature="0"
       style="fill:#000000;fill-opacity:1;stroke-width:0.26458335" />
    <g
       id="g1055"
       transform="matrix(1.6098181,0,0,1.6098181,210.26085,176.67439)"
       style="stroke-width:0.62118816">
      <g
         id="g1023"
         style="stroke-width:0.62118816">
        <g
           class=""
           transform="matrix(0.01642606,0,0,0.01640734,-329.17897,-306.59553)"
           id="g983"
           style="stroke-width:10.01151752">
          <path
             style="fill:#000000;fill-opacity:1;stroke-width:10.01151752"
             inkscape:connector-curvature="0"
             d="M 255.977,147.306 C 285.345,194.92 349.612,272.93 406,311.866 v 52.592 C 353.404,325.283 300.772,271.988 265.44,218.988 l -9.44,-14.16 -9.44,14.16 C 211.114,272.158 159.112,325.775 106,364.694 v -52.89 c 55.382,-38.943 120.38,-116.82 149.977,-164.498 z"
             id="path981" />
        </g>
        <g
           style="stroke-width:10.01151752"
           id="g1017"
           transform="matrix(0.01642606,0,0,0.01640734,-329.17897,-306.06639)"
           class="">
          <path
             id="path1015"
             d="M 255.977,147.306 C 285.345,194.92 349.612,272.93 406,311.866 v 52.592 C 353.404,325.283 300.772,271.988 265.44,218.988 l -9.44,-14.16 -9.44,14.16 C 211.114,272.158 159.112,325.775 106,364.694 v -52.89 c 55.382,-38.943 120.38,-116.82 149.977,-164.498 z"
             inkscape:connector-curvature="0"
             style="fill:#000000;fill-opacity:1;stroke-width:10.01151752" />
        </g>
      </g>
      <g
         transform="translate(0,1.0583331)"
         id="g1043"
         style="stroke-width:0.62118816">
        <g
           style="stroke-width:10.01151752"
           id="g1037"
           transform="matrix(0.01642606,0,0,0.01640734,-329.17897,-306.59553)"
           class="">
          <path
             id="path1035"
             d="M 255.977,147.306 C 285.345,194.92 349.612,272.93 406,311.866 v 52.592 C 353.404,325.283 300.772,271.988 265.44,218.988 l -9.44,-14.16 -9.44,14.16 C 211.114,272.158 159.112,325.775 106,364.694 v -52.89 c 55.382,-38.943 120.38,-116.82 149.977,-164.498 z"
             inkscape:connector-curvature="0"
             style="fill:#000000;fill-opacity:1;stroke-width:10.01151752" />
        </g>
        <g
           class=""
           transform="matrix(0.01642606,0,0,0.01640734,-329.17897,-306.06639)"
           id="g1041"
           style="stroke-width:10.01151752">
          <path
             style="fill:#000000;fill-opacity:1;stroke-width:10.01151752"
             inkscape:connector-curvature="0"
             d="M 255.977,147.306 C 285.345,194.92 349.612,272.93 406,311.866 v 52.592 C 353.404,325.283 300.772,271.988 265.44,218.988 l -9.44,-14.16 -9.44,14.16 C 211.114,272.158 159.112,325.775 106,364.694 v -52.89 c 55.382,-38.943 120.38,-116.82 149.977,-164.498 z"
             id="path1039" />
        </g>
      </g>
    </g>
    <rect
       style="opacity:1;vector-effect:none;fill:none;fill-opacity:1;stroke:#000000;stroke-width:0.26458332;stroke-linecap:butt;stroke-linejoin:miter;stroke-miterlimit:4;stroke-dasharray:none;stroke-dashoffset:0;stroke-opacity:1"
       id="attrOdd2"
       width="31.75"
       height="13.418155"
       x="-265.11252"
       y="-327.00092"
       inkscape:label="layout" />
    <text
       xml:space="preserve"
       style="font-style:normal;font-variant:normal;font-weight:bold;font-stretch:normal;font-size:7.07499599px;line-height:1.25;font-family:sans-serif;-inkscape-font-specification:'sans-serif Bold';text-align:start;letter-spacing:0px;word-spacing:0px;text-anchor:start;fill:#000000;fill-opacity:1;stroke:none;stroke-width:0.26458332"
       x="-242.90846"
       y="-341.15225"
       id="text1087"><tspan
         sodipodi:role="line"
         id="tspan1085"
         x="-242.90846"
         y="-341.15225"
         style="text-align:start;text-anchor:start;stroke-width:0.26458332">{attr_value}</tspan></text>
    <rect
       y="-350.28421"
       x="-258.15775"
       height="13.418155"
       width="31.75"
       id="rect1089"
       style="opacity:1;vector-effect:none;fill:none;fill-opacity:1;stroke:#000000;stroke-width:0.26458332;stroke-linecap:butt;stroke-linejoin:miter;stroke-miterlimit:4;stroke-dasharray:none;stroke-dashoffset:0;stroke-opacity:1"
       inkscape:label="layout" />
    <rect
       y="-313.24258"
       x="-265.11252"
       height="13.418155"
       width="31.75"
       id="attrOdd1"
       style="opacity:1;vector-effect:none;fill:none;fill-opacity:1;stroke:#000000;stroke-width:0.26458332;stroke-linecap:butt;stroke-linejoin:miter;stroke-miterlimit:4;stroke-dasharray:none;stroke-dashoffset:0;stroke-opacity:1"
       inkscape:label="layout" />
    <rect
       style="opacity:1;vector-effect:none;fill:none;fill-opacity:1;stroke:#000000;stroke-width:0.26458332;stroke-linecap:butt;stroke-linejoin:miter;stroke-miterlimit:4;stroke-dasharray:none;stroke-dashoffset:0;stroke-opacity:1"
       id="attrOdd3"
       width="31.75"
       height="13.418155"
       x="-265.11252"
       y="-299.48425"
       inkscape:label="layout" />
    <rect
       inkscape:label="layout"
       y="-320.12183"
       x="-265.11252"
       height="13.418155"
       width="31.75"
       id="attrEven1"
       style="opacity:1;vector-effect:none;fill:none;fill-opacity:1;stroke:#000000;stroke-width:0.26458332;stroke-linecap:butt;stroke-linejoin:miter;stroke-miterlimit:4;stroke-dasharray:none;stroke-dashoffset:0;stroke-opacity:1" />
    <rect
       inkscape:label="layout"
       style="opacity:1;vector-effect:none;fill:none;fill-opacity:1;stroke:#000000;stroke-width:0.26458332;stroke-linecap:butt;stroke-linejoin:miter;stroke-miterlimit:4;stroke-dasharray:none;stroke-dashoffset:0;stroke-opacity:1"
       id="attrEven2"
       width="31.75"
       height="13.418155"
       x="-265.11252"
       y="-306.36349" />
    <rect
       style="opacity:1;vector-effect:none;fill:none;fill-opacity:1;stroke:#000000;stroke-width:0.26458332;stroke-linecap:butt;stroke-linejoin:miter;stroke-miterlimit:4;stroke-dasharray:none;stroke-dashoffset:0;stroke-opacity:1"
       id="powerDraw"
       width="9.3233995"
       height="16.570711"
       x="-232.49345"
       y="-301.28284"
       inkscape:label="layout" />
    <rect
       y="-303.25977"
       x="-192.49858"
       height="11.086172"
       width="8.9411602"
       id="rect1101"
       style="opacity:1;vector-effect:none;fill:#e6e6e6;fill-opacity:1;stroke:#000000;stroke-width:0.26458332;stroke-linecap:butt;stroke-linejoin:miter;stroke-miterlimit:4;stroke-dasharray:none;stroke-dashoffset:0;stroke-opacity:1" />
    <path
       id="path1103"
       d="m -190.81338,-304.09494 h 2.78541 l -2e-5,-3.49265 2.78539,5.10464 h -2.78539 l 2e-5,3.49265 z"
       inkscape:connector-curvature="0"
       style="fill:#000000;fill-opacity:1;stroke-width:0.26458335" />
    <text
       transform="scale(1.0017131,0.99828982)"
       id="text1107"
       y="-294.29712"
       x="-187.66269"
       style="font-style:normal;font-variant:normal;font-weight:bold;font-stretch:normal;font-size:5.97189045px;line-height:1.25;font-family:sans-serif;-inkscape-font-specification:'sans-serif Bold';text-align:center;letter-spacing:0px;word-spacing:0px;text-anchor:middle;fill:#000000;fill-opacity:1;stroke:none;stroke-width:0.26458332"
       xml:space="preserve"><tspan
         style="stroke-width:0.26458332"
         y="-294.29712"
         x="-187.66269"
         id="tspan1105"
         sodipodi:role="line">{power_draw}</tspan></text>
    <rect
       y="-308.69098"
       x="-192.82198"
       height="16.570711"
       width="9.3233995"
       id="rect1109"
       style="opacity:1;vector-effect:none;fill:none;fill-opacity:1;stroke:#000000;stroke-width:0.26458332;stroke-linecap:butt;stroke-linejoin:miter;stroke-miterlimit:4;stroke-dasharray:none;stroke-dashoffset:0;stroke-opacity:1"
       inkscape:label="layout" />
    <rect
       style="opacity:1;vector-effect:none;fill:none;fill-opacity:1;stroke:#000000;stroke-width:0.26458332;stroke-linecap:butt;stroke-linejoin:miter;stroke-miterlimit:4;stroke-dasharray:none;stroke-dashoffset:0;stroke-opacity:1"
       id="attrIcon"
       width="13.418138"
       height="13.418138"
       x="-258.15775"
       y="-350.28421"
       inkscape:label="layout" />
    <g
       id="g8638">
      <rect
         style="opacity:1;vector-effect:none;fill:none;fill-opacity:1;stroke:#000000;stroke-width:0.26458332;stroke-linecap:butt;stroke-linejoin:miter;stroke-miterlimit:4;stroke-dasharray:none;stroke-dashoffset:0;stroke-opacity:1"
         id="rect4879"
         width="13.418138"
         height="13.418138"
         x="-277.80307"
         y="-380.99197"
         inkscape:label="layout" />
      <path
         sodipodi:type="star"
         style="opacity:1;vector-effect:none;fill:#000000;fill-opacity:1;stroke:#000000;stroke-width:0.26458332;stroke-linecap:butt;stroke-linejoin:miter;stroke-miterlimit:4;stroke-dasharray:none;stroke-dashoffset:0;stroke-opacity:1"
         id="path4889"
         sodipodi:sides="8"
         sodipodi:cx="-271.09399"
         sodipodi:cy="-374.28291"
         sodipodi:r1="1.2599738"
         sodipodi:r2="1.8529027"
         sodipodi:arg1="0.52359878"
         sodipodi:arg2="0.91629786"
         inkscape:flatsided="false"
         inkscape:rounded="0.18"
         inkscape:randomized="0"
         d="m -270.00282,-373.65291 c -0.0757,0.13107 0.15687,0.74788 0.0368,0.84002 -0.12007,0.0921 -0.65568,-0.29214 -0.80187,-0.25297 -0.14619,0.0392 -0.4179,0.63977 -0.56796,0.62001 -0.15005,-0.0197 -0.25706,-0.6702 -0.38813,-0.74588 -0.13107,-0.0757 -0.74789,0.15688 -0.84002,0.0368 -0.0921,-0.12008 0.29214,-0.65568 0.25296,-0.80187 -0.0392,-0.14619 -0.63976,-0.41791 -0.62,-0.56796 0.0197,-0.15005 0.6702,-0.25706 0.74588,-0.38813 0.0757,-0.13108 -0.15688,-0.74789 -0.0368,-0.84002 0.12007,-0.0921 0.65568,0.29213 0.80187,0.25296 0.14619,-0.0392 0.4179,-0.63976 0.56796,-0.62001 0.15005,0.0198 0.25706,0.67021 0.38813,0.74588 0.13107,0.0757 0.74789,-0.15688 0.84002,-0.0368 0.0921,0.12007 -0.29213,0.65568 -0.25296,0.80187 0.0392,0.14619 0.63976,0.4179 0.62001,0.56795 -0.0198,0.15006 -0.67021,0.25707 -0.74588,0.38814 z"
         inkscape:transform-center-x="-3.2173358e-06"
         inkscape:transform-center-y="-0.36941773" />
    </g>
    <g
       id="g8643">
      <rect
         inkscape:label="layout"
         y="-380.7247"
         x="-258.82693"
         height="13.418138"
         width="13.418138"
         id="rect4883"
         style="opacity:1;vector-effect:none;fill:none;fill-opacity:1;stroke:#000000;stroke-width:0.26458332;stroke-linecap:butt;stroke-linejoin:miter;stroke-miterlimit:4;stroke-dasharray:none;stroke-dashoffset:0;stroke-opacity:1" />
      <path
         sodipodi:type="star"
         style="opacity:1;vector-effect:none;fill:#000000;fill-opacity:1;stroke:#000000;stroke-width:0.26458332;stroke-linecap:butt;stroke-linejoin:miter;stroke-miterlimit:4;stroke-dasharray:none;stroke-dashoffset:0;stroke-opacity:1"
         id="path4891"
         sodipodi:sides="8"
         sodipodi:cx="-254.49869"
         sodipodi:cy="-376.50977"
         sodipodi:r1="1.2599738"
         sodipodi:r2="1.8529027"
         sodipodi:arg1="0.52359878"
         sodipodi:arg2="0.91629786"
         inkscape:flatsided="false"
         inkscape:rounded="0.18"
         inkscape:randomized="0"
         d="m -253.40752,-375.87978 c -0.0757,0.13107 0.15688,0.74789 0.0368,0.84002 -0.12008,0.0921 -0.65568,-0.29214 -0.80187,-0.25296 -0.14619,0.0392 -0.41791,0.63976 -0.56796,0.62001 -0.15005,-0.0198 -0.25706,-0.67021 -0.38813,-0.74589 -0.13108,-0.0757 -0.74789,0.15688 -0.84002,0.0368 -0.0921,-0.12007 0.29213,-0.65568 0.25296,-0.80187 -0.0392,-0.14619 -0.63976,-0.4179 -0.62001,-0.56796 0.0198,-0.15005 0.67021,-0.25706 0.74588,-0.38813 0.0757,-0.13107 -0.15688,-0.74789 -0.0368,-0.84002 0.12007,-0.0921 0.65568,0.29214 0.80187,0.25296 0.14619,-0.0392 0.4179,-0.63976 0.56795,-0.62001 0.15006,0.0198 0.25707,0.67021 0.38814,0.74589 0.13107,0.0757 0.74788,-0.15688 0.84002,-0.0368 0.0921,0.12007 -0.29214,0.65568 -0.25297,0.80187 0.0392,0.14619 0.63977,0.4179 0.62001,0.56796 -0.0197,0.15005 -0.6702,0.25706 -0.74588,0.38813 z"
         inkscape:transform-center-x="-3.2173358e-06"
         inkscape:transform-center-y="-0.36941773" />
      <path
         inkscape:transform-center-y="-0.36941773"
         inkscape:transform-center-x="-3.2173358e-06"
         d="m -248.64588,-370.8915 c -0.0757,0.13107 0.15688,0.74789 0.0368,0.84002 -0.12007,0.0921 -0.65568,-0.29214 -0.80187,-0.25296 -0.14619,0.0392 -0.4179,0.63976 -0.56796,0.62001 -0.15005,-0.0198 -0.25706,-0.67021 -0.38813,-0.74589 -0.13107,-0.0757 -0.74789,0.15688 -0.84002,0.0368 -0.0921,-0.12007 0.29214,-0.65568 0.25296,-0.80187 -0.0392,-0.14619 -0.63976,-0.4179 -0.62001,-0.56796 0.0198,-0.15005 0.67021,-0.25706 0.74589,-0.38813 0.0757,-0.13107 -0.15688,-0.74789 -0.0368,-0.84002 0.12007,-0.0921 0.65568,0.29214 0.80187,0.25296 0.14619,-0.0392 0.4179,-0.63976 0.56796,-0.62001 0.15005,0.0198 0.25706,0.67021 0.38813,0.74589 0.13107,0.0757 0.74789,-0.15688 0.84002,-0.0368 0.0921,0.12007 -0.29214,0.65568 -0.25296,0.80187 0.0392,0.14619 0.63976,0.4179 0.62001,0.56796 -0.0198,0.15005 -0.67021,0.25706 -0.74589,0.38813 z"
         inkscape:randomized="0"
         inkscape:rounded="0.18"
         inkscape:flatsided="false"
         sodipodi:arg2="0.91629786"
         sodipodi:arg1="0.52359878"
         sodipodi:r2="1.8529027"
         sodipodi:r1="1.2599738"
         sodipodi:cy="-371.52149"
         sodipodi:cx="-249.73704"
         sodipodi:sides="8"
         id="path4893"
         style="opacity:1;vector-effect:none;fill:#000000;fill-opacity:1;stroke:#000000;stroke-width:0.26458332;stroke-linecap:butt;stroke-linejoin:miter;stroke-miterlimit:4;stroke-dasharray:none;stroke-dashoffset:0;stroke-opacity:1"
         sodipodi:type="star" />
    </g>
    <g
       id="g8649">
      <rect
         style="opacity:1;vector-effect:none;fill:none;fill-opacity:1;stroke:#000000;stroke-width:0.26458332;stroke-linecap:butt;stroke-linejoin:miter;stroke-miterlimit:4;stroke-dasharray:none;stroke-dashoffset:0;stroke-opacity:1"
         id="rect4885"
         width="13.418138"
         height="13.418138"
         x="-238.24718"
         y="-380.85834"
         inkscape:label="layout" />
      <path
         inkscape:transform-center-y="-0.36941773"
         inkscape:transform-center-x="-3.2173358e-06"
         d="m -230.44695,-373.51927 c -0.0757,0.13107 0.15688,0.74788 0.0368,0.84002 -0.12007,0.0921 -0.65568,-0.29214 -0.80187,-0.25297 -0.14619,0.0392 -0.4179,0.63976 -0.56796,0.62001 -0.15005,-0.0198 -0.25706,-0.67021 -0.38813,-0.74588 -0.13108,-0.0757 -0.74789,0.15688 -0.84002,0.0368 -0.0921,-0.12007 0.29213,-0.65567 0.25296,-0.80187 -0.0392,-0.14619 -0.63976,-0.4179 -0.62001,-0.56795 0.0198,-0.15006 0.67021,-0.25707 0.74588,-0.38814 0.0757,-0.13107 -0.15688,-0.74788 -0.0368,-0.84002 0.12007,-0.0921 0.65568,0.29214 0.80187,0.25297 0.14619,-0.0392 0.4179,-0.63977 0.56796,-0.62001 0.15005,0.0197 0.25706,0.6702 0.38813,0.74588 0.13107,0.0757 0.74788,-0.15688 0.84002,-0.0368 0.0921,0.12008 -0.29214,0.65568 -0.25297,0.80187 0.0392,0.14619 0.63977,0.41791 0.62001,0.56796 -0.0198,0.15005 -0.6702,0.25706 -0.74588,0.38814 z"
         inkscape:randomized="0"
         inkscape:rounded="0.18"
         inkscape:flatsided="false"
         sodipodi:arg2="0.91629786"
         sodipodi:arg1="0.52359878"
         sodipodi:r2="1.8529027"
         sodipodi:r1="1.2599738"
         sodipodi:cy="-374.14927"
         sodipodi:cx="-231.53812"
         sodipodi:sides="8"
         id="path8604"
         style="opacity:1;vector-effect:none;fill:#000000;fill-opacity:1;stroke:#000000;stroke-width:0.26458332;stroke-linecap:butt;stroke-linejoin:miter;stroke-miterlimit:4;stroke-dasharray:none;stroke-dashoffset:0;stroke-opacity:1"
         sodipodi:type="star" />
      <path
         sodipodi:type="star"
         style="opacity:1;vector-effect:none;fill:#000000;fill-opacity:1;stroke:#000000;stroke-width:0.26458332;stroke-linecap:butt;stroke-linejoin:miter;stroke-miterlimit:4;stroke-dasharray:none;stroke-dashoffset:0;stroke-opacity:1"
         id="path8614"
         sodipodi:sides="8"
         sodipodi:cx="-234.91238"
         sodipodi:cy="-377.52355"
         sodipodi:r1="1.2599738"
         sodipodi:r2="1.8529027"
         sodipodi:arg1="0.52359878"
         sodipodi:arg2="0.91629786"
         inkscape:flatsided="false"
         inkscape:rounded="0.18"
         inkscape:randomized="0"
         d="m -233.82121,-376.89357 c -0.0757,0.13107 0.15687,0.74788 0.0368,0.84002 -0.12007,0.0921 -0.65568,-0.29214 -0.80187,-0.25297 -0.14619,0.0392 -0.4179,0.63977 -0.56796,0.62001 -0.15005,-0.0197 -0.25706,-0.67021 -0.38813,-0.74588 -0.13107,-0.0757 -0.74789,0.15688 -0.84002,0.0368 -0.0921,-0.12008 0.29214,-0.65568 0.25296,-0.80187 -0.0392,-0.1462 -0.63976,-0.41791 -0.62,-0.56796 0.0197,-0.15006 0.6702,-0.25706 0.74588,-0.38814 0.0757,-0.13107 -0.15688,-0.74788 -0.0368,-0.84002 0.12007,-0.0921 0.65568,0.29214 0.80187,0.25297 0.14619,-0.0392 0.4179,-0.63977 0.56796,-0.62001 0.15005,0.0197 0.25706,0.67021 0.38813,0.74588 0.13107,0.0757 0.74789,-0.15688 0.84002,-0.0368 0.0921,0.12008 -0.29213,0.65568 -0.25296,0.80188 0.0392,0.14619 0.63976,0.4179 0.62001,0.56795 -0.0198,0.15006 -0.67021,0.25707 -0.74588,0.38814 z"
         inkscape:transform-center-x="-3.2173358e-06"
         inkscape:transform-center-y="-0.36941773" />
      <path
         inkscape:transform-center-y="-0.36941773"
         inkscape:transform-center-x="-3.2173358e-06"
         d="m -227.07266,-370.14501 c -0.0757,0.13107 0.15687,0.74789 0.0368,0.84002 -0.12007,0.0921 -0.65568,-0.29213 -0.80187,-0.25296 -0.14619,0.0392 -0.4179,0.63976 -0.56796,0.62001 -0.15005,-0.0198 -0.25706,-0.67021 -0.38813,-0.74588 -0.13107,-0.0757 -0.74788,0.15687 -0.84002,0.0368 -0.0921,-0.12007 0.29214,-0.65568 0.25297,-0.80187 -0.0392,-0.14619 -0.63977,-0.4179 -0.62001,-0.56796 0.0197,-0.15005 0.6702,-0.25706 0.74588,-0.38813 0.0757,-0.13107 -0.15688,-0.74789 -0.0368,-0.84002 0.12007,-0.0921 0.65568,0.29214 0.80187,0.25296 0.14619,-0.0392 0.4179,-0.63976 0.56796,-0.62 0.15005,0.0197 0.25706,0.6702 0.38813,0.74588 0.13108,0.0757 0.74789,-0.15688 0.84002,-0.0368 0.0921,0.12007 -0.29213,0.65568 -0.25296,0.80187 0.0392,0.14619 0.63976,0.4179 0.62001,0.56796 -0.0198,0.15005 -0.67021,0.25706 -0.74588,0.38813 z"
         inkscape:randomized="0"
         inkscape:rounded="0.18"
         inkscape:flatsided="false"
         sodipodi:arg2="0.91629786"
         sodipodi:arg1="0.52359878"
         sodipodi:r2="1.8529027"
         sodipodi:r1="1.2599738"
         sodipodi:cy="-370.77498"
         sodipodi:cx="-228.16383"
         sodipodi:sides="8"
         id="path8616"
         style="opacity:1;vector-effect:none;fill:#000000;fill-opacity:1;stroke:#000000;stroke-width:0.26458332;stroke-linecap:butt;stroke-linejoin:miter;stroke-miterlimit:4;stroke-dasharray:none;stroke-dashoffset:0;stroke-opacity:1"
         sodipodi:type="star" />
    </g>
    <g
       id="g8656">
      <rect
         inkscape:label="layout"
         y="-381.32605"
         x="-219.73877"
         height="13.418138"
         width="13.418138"
         id="rect4887"
         style="opacity:1;vector-effect:none;fill:none;fill-opacity:1;stroke:#000000;stroke-width:0.26458332;stroke-linecap:butt;stroke-linejoin:miter;stroke-miterlimit:4;stroke-dasharray:none;stroke-dashoffset:0;stroke-opacity:1" />
      <path
         inkscape:transform-center-y="-0.36941773"
         inkscape:transform-center-x="-3.2173358e-06"
         d="m -215.31281,-377.36125 c -0.0757,0.13107 0.15688,0.74788 0.0368,0.84002 -0.12007,0.0921 -0.65568,-0.29214 -0.80187,-0.25297 -0.14619,0.0392 -0.4179,0.63976 -0.56796,0.62001 -0.15005,-0.0198 -0.25706,-0.67021 -0.38813,-0.74588 -0.13108,-0.0757 -0.74789,0.15688 -0.84002,0.0368 -0.0921,-0.12007 0.29213,-0.65567 0.25296,-0.80187 -0.0392,-0.14619 -0.63976,-0.4179 -0.62001,-0.56795 0.0198,-0.15006 0.67021,-0.25707 0.74588,-0.38814 0.0757,-0.13107 -0.15688,-0.74788 -0.0368,-0.84002 0.12007,-0.0921 0.65568,0.29214 0.80187,0.25297 0.14619,-0.0392 0.4179,-0.63977 0.56796,-0.62001 0.15005,0.0197 0.25706,0.6702 0.38813,0.74588 0.13107,0.0757 0.74788,-0.15688 0.84002,-0.0368 0.0921,0.12008 -0.29214,0.65568 -0.25297,0.80187 0.0392,0.14619 0.63977,0.41791 0.62001,0.56796 -0.0197,0.15005 -0.6702,0.25706 -0.74588,0.38814 z"
         inkscape:randomized="0"
         inkscape:rounded="0.18"
         inkscape:flatsided="false"
         sodipodi:arg2="0.91629786"
         sodipodi:arg1="0.52359878"
         sodipodi:r2="1.8529027"
         sodipodi:r1="1.2599738"
         sodipodi:cy="-377.99125"
         sodipodi:cx="-216.40398"
         sodipodi:sides="8"
         id="path8618"
         style="opacity:1;vector-effect:none;fill:#000000;fill-opacity:1;stroke:#000000;stroke-width:0.26458332;stroke-linecap:butt;stroke-linejoin:miter;stroke-miterlimit:4;stroke-dasharray:none;stroke-dashoffset:0;stroke-opacity:1"
         sodipodi:type="star" />
      <path
         sodipodi:type="star"
         style="opacity:1;vector-effect:none;fill:#000000;fill-opacity:1;stroke:#000000;stroke-width:0.26458332;stroke-linecap:butt;stroke-linejoin:miter;stroke-miterlimit:4;stroke-dasharray:none;stroke-dashoffset:0;stroke-opacity:1"
         id="path8620"
         sodipodi:sides="8"
         sodipodi:cx="-209.65543"
         sodipodi:cy="-371.24271"
         sodipodi:r1="1.2599738"
         sodipodi:r2="1.8529027"
         sodipodi:arg1="0.52359878"
         sodipodi:arg2="0.91629786"
         inkscape:flatsided="false"
         inkscape:rounded="0.18"
         inkscape:randomized="0"
         d="m -208.56426,-370.61272 c -0.0757,0.13107 0.15688,0.74789 0.0368,0.84002 -0.12007,0.0921 -0.65568,-0.29214 -0.80187,-0.25297 -0.14619,0.0392 -0.4179,0.63977 -0.56796,0.62001 -0.15005,-0.0197 -0.25706,-0.6702 -0.38813,-0.74588 -0.13107,-0.0757 -0.74789,0.15688 -0.84002,0.0368 -0.0921,-0.12007 0.29213,-0.65568 0.25296,-0.80187 -0.0392,-0.14619 -0.63976,-0.4179 -0.62001,-0.56796 0.0198,-0.15005 0.67021,-0.25706 0.74588,-0.38813 0.0757,-0.13107 -0.15687,-0.74789 -0.0368,-0.84002 0.12007,-0.0921 0.65568,0.29213 0.80187,0.25296 0.14619,-0.0392 0.4179,-0.63976 0.56796,-0.62001 0.15005,0.0198 0.25706,0.67021 0.38813,0.74588 0.13107,0.0757 0.74789,-0.15687 0.84002,-0.0368 0.0921,0.12007 -0.29214,0.65568 -0.25296,0.80187 0.0392,0.14619 0.63976,0.4179 0.62,0.56796 -0.0198,0.15005 -0.6702,0.25706 -0.74588,0.38813 z"
         inkscape:transform-center-x="-3.2173358e-06"
         inkscape:transform-center-y="-0.36941773" />
      <path
         transform="scale(1,-1)"
         sodipodi:type="star"
         style="opacity:1;vector-effect:none;fill:#000000;fill-opacity:1;stroke:#000000;stroke-width:0.26458332;stroke-linecap:butt;stroke-linejoin:miter;stroke-miterlimit:4;stroke-dasharray:none;stroke-dashoffset:0;stroke-opacity:1"
         id="path8622"
         sodipodi:sides="8"
         sodipodi:cx="-216.40398"
         sodipodi:cy="371.24271"
         sodipodi:r1="1.2599738"
         sodipodi:r2="1.8529027"
         sodipodi:arg1="0.52359878"
         sodipodi:arg2="0.91629786"
         inkscape:flatsided="false"
         inkscape:rounded="0.18"
         inkscape:randomized="0"
         d="m -215.31281,371.87269 c -0.0757,0.13107 0.15688,0.74789 0.0368,0.84002 -0.12007,0.0921 -0.65568,-0.29213 -0.80187,-0.25296 -0.14619,0.0392 -0.4179,0.63976 -0.56796,0.62001 -0.15005,-0.0198 -0.25706,-0.67021 -0.38813,-0.74588 -0.13108,-0.0757 -0.74789,0.15687 -0.84002,0.0368 -0.0921,-0.12007 0.29213,-0.65568 0.25296,-0.80187 -0.0392,-0.14619 -0.63976,-0.4179 -0.62001,-0.56796 0.0198,-0.15005 0.67021,-0.25706 0.74588,-0.38813 0.0757,-0.13107 -0.15688,-0.74789 -0.0368,-0.84002 0.12007,-0.0921 0.65568,0.29214 0.80187,0.25297 0.14619,-0.0392 0.4179,-0.63977 0.56796,-0.62001 0.15005,0.0197 0.25706,0.6702 0.38813,0.74588 0.13107,0.0757 0.74788,-0.15688 0.84002,-0.0368 0.0921,0.12007 -0.29214,0.65568 -0.25297,0.80187 0.0392,0.14619 0.63977,0.4179 0.62001,0.56796 -0.0197,0.15005 -0.6702,0.25706 -0.74588,0.38813 z"
         inkscape:transform-center-x="-3.2173358e-06"
         inkscape:transform-center-y="0.36941773" />
      <path
         transform="scale(1,-1)"
         inkscape:transform-center-y="0.36941773"
         inkscape:transform-center-x="-3.2173358e-06"
         d="m -208.56426,378.62123 c -0.0757,0.13107 0.15688,0.74788 0.0368,0.84002 -0.12007,0.0921 -0.65568,-0.29214 -0.80187,-0.25297 -0.14619,0.0392 -0.4179,0.63977 -0.56796,0.62001 -0.15005,-0.0197 -0.25706,-0.6702 -0.38813,-0.74588 -0.13107,-0.0757 -0.74789,0.15688 -0.84002,0.0368 -0.0921,-0.12008 0.29213,-0.65568 0.25296,-0.80187 -0.0392,-0.14619 -0.63976,-0.41791 -0.62001,-0.56796 0.0198,-0.15005 0.67021,-0.25706 0.74588,-0.38814 0.0757,-0.13107 -0.15687,-0.74788 -0.0368,-0.84002 0.12007,-0.0921 0.65568,0.29214 0.80187,0.25297 0.14619,-0.0392 0.4179,-0.63976 0.56796,-0.62001 0.15005,0.0198 0.25706,0.67021 0.38813,0.74588 0.13107,0.0757 0.74789,-0.15688 0.84002,-0.0368 0.0921,0.12007 -0.29214,0.65567 -0.25296,0.80187 0.0392,0.14619 0.63976,0.4179 0.62,0.56795 -0.0198,0.15006 -0.6702,0.25707 -0.74588,0.38814 z"
         inkscape:randomized="0"
         inkscape:rounded="0.18"
         inkscape:flatsided="false"
         sodipodi:arg2="0.91629786"
         sodipodi:arg1="0.52359878"
         sodipodi:r2="1.8529027"
         sodipodi:r1="1.2599738"
         sodipodi:cy="377.99125"
         sodipodi:cx="-209.65543"
         sodipodi:sides="8"
         id="path8624"
         style="opacity:1;vector-effect:none;fill:#000000;fill-opacity:1;stroke:#000000;stroke-width:0.26458332;stroke-linecap:butt;stroke-linejoin:miter;stroke-miterlimit:4;stroke-dasharray:none;stroke-dashoffset:0;stroke-opacity:1"
         sodipodi:type="star" />
    </g>
    <g
       id="g11006">
      <rect
         style="opacity:1;vector-effect:none;fill:none;fill-opacity:1;stroke:#000000;stroke-width:0.26458332;stroke-linecap:butt;stroke-linejoin:miter;stroke-miterlimit:4;stroke-dasharray:none;stroke-dashoffset:0;stroke-opacity:1"
         id="rect10964"
         width="13.418138"
         height="13.418138"
         x="-199.69356"
         y="-381.05878"
         inkscape:label="layout" />
      <g
         style="stroke-width:13.64972687"
         id="g10985"
         transform="matrix(0.01938379,0,0,0.01938379,-197.88531,-379.30606)"
         class="">
        <path
           id="path10983"
           d="M 13.03,14.156 V 60.47 l 119.782,144 c 10.884,-12.14 22.31,-24.247 34.282,-36.22 11.13,-11.13 22.32,-21.773 33.53,-31.938 L 54.065,14.156 Z m 432.533,5.97 c -2.307,0.043 -4.7,0.183 -7.188,0.405 -19.907,1.777 -44.893,9.52 -72.656,22.782 -45.372,21.676 -98.133,57.952 -150.564,105.126 l -0.03,-0.032 c -0.96,0.864 -1.918,1.754 -2.876,2.625 -1.927,1.75 -3.856,3.504 -5.78,5.282 -0.034,0.03 -0.063,0.064 -0.095,0.094 -2.795,2.583 -5.585,5.17 -8.375,7.813 -0.107,0.1 -0.205,0.21 -0.313,0.31 -2.9,2.75 -5.796,5.562 -8.687,8.376 -2.902,2.825 -5.797,5.674 -8.688,8.563 -0.078,0.077 -0.17,0.14 -0.25,0.218 l -0.812,0.812 C 116.164,245.746 68.015,312.14 41.5,367.53 c -13.316,27.82 -21.125,52.866 -22.938,72.814 -1.812,19.948 2.15,34.025 10.97,42.844 8.818,8.818 22.895,12.78 42.843,10.968 19.948,-1.812 44.995,-9.59 72.813,-22.906 36.475,-17.46 77.708,-44.312 119.687,-78.625 l -13,-15.625 c -76.125,63.634 -142.623,97.127 -161.97,77.78 -21.25,-21.25 21.226,-99.45 97.407,-184.75 l 0.344,0.408 c 12.673,-14.077 26.176,-28.306 40.438,-42.563 12.84,-12.838 25.715,-25.043 38.47,-36.594 l -0.408,-0.343 c 86.176,-77.464 165.56,-120.875 187,-99.437 19.556,19.554 -14.89,87.342 -79.875,164.5 l 15.658,13.03 c 35.244,-42.798 62.73,-84.904 80.468,-122.03 13.264,-27.763 21.037,-52.75 22.813,-72.656 1.775,-19.907 -2.235,-33.953 -11.064,-42.78 -7.725,-7.726 -19.446,-11.746 -35.594,-11.44 z M 281.03,203.343 c -13.175,11.87 -26.468,24.473 -39.75,37.75 -14.714,14.71 -28.594,29.393 -41.56,43.875 l 66.436,79.874 c -0.017,0.014 -0.045,0.016 -0.062,0.03 l 13.125,15.75 0.03,-0.03 46.03,55.344 c -25.77,6.714 -52.722,5.31 -77.03,-7.657 4.94,6.544 9.707,13.083 15.72,19.095 58.928,58.93 146.78,66.75 196.092,17.438 49.314,-49.314 41.523,-137.165 -17.406,-196.094 -3.683,-3.685 -6.796,-7.407 -10.687,-10.69 -2.463,-2.075 -5.342,-3.71 -7.876,-5.624 14.742,25.24 16.597,52.502 9.625,78.22 z"
           inkscape:connector-curvature="0"
           style="fill:#000000;fill-opacity:1;stroke-width:13.64972687" />
      </g>
    </g>
    <rect
       inkscape:label="layout"
       style="opacity:1;vector-effect:none;fill:none;fill-opacity:1;stroke:#000000;stroke-width:0.26458332;stroke-linecap:butt;stroke-linejoin:miter;stroke-miterlimit:4;stroke-dasharray:none;stroke-dashoffset:0;stroke-opacity:1"
       id="rect11583"
       width="9.3233995"
       height="16.570711"
       x="-192.82198"
       y="-308.69098" />
    <g
       class=""
       transform="matrix(0.26458333,0,0,0.26458333,-609.307,-503.61829)"
       id="g11589">
      <path
         style="fill:#000000;fill-opacity:1;stroke-width:0.99999994"
         inkscape:connector-curvature="0"
         d="m 1009.8883,651.41452 -12.87796,7.62737 5.41466,1.92271 -5.12716,14.4473 7.21166,2.56363 5.1392,-14.44732 5.4147,1.92871 z m -25.28876,1.53338 -0.57142,7.18292 -2.70618,-0.2288 4.07304,5.75855 4.90686,-5.02661 -2.6906,-0.21563 0.5786,-7.20089 z m 39.41256,7.00083 -3.6058,3.35188 6.6845,7.21167 -2.7193,2.50372 9.5357,1.23389 -0.5031,-9.58362 -2.7074,2.50372 z m -41.4359,13.03133 -1.5825,4.13293 8.21794,3.19854 -1.2243,3.09072 8.1964,-2.71936 -4.1449,-7.57105 -1.2219,3.10269 z m 45.2574,6.20539 -11.3686,0.91045 2.959,10.97324 2.5157,-3.5699 9.5117,6.74447 3.3543,-4.76785 -9.5118,-6.72051 z m -21.647,1.73704 -16.26816,12.20713 -4.58455,-6.14549 -4.55821,19.37088 19.80452,1.00628 -4.56416,-6.10956 16.30406,-12.19515 z m 11.117,13.84833 -2.6714,1.89276 3.7496,5.3788 -2.0246,1.40161 6.1815,1.71307 0.575,-6.38509 -2.0365,1.40161 z"
         id="path11587" />
    </g>
  </g>
</svg>
