<?xml version="1.0" encoding="UTF-8" standalone="no"?>
<!-- Created with Inkscape (http://www.inkscape.org/) -->

<svg
   xmlns:dc="http://purl.org/dc/elements/1.1/"
   xmlns:cc="http://creativecommons.org/ns#"
   xmlns:rdf="http://www.w3.org/1999/02/22-rdf-syntax-ns#"
   xmlns:svg="http://www.w3.org/2000/svg"
   xmlns="http://www.w3.org/2000/svg"
   xmlns:sodipodi="http://sodipodi.sourceforge.net/DTD/sodipodi-0.dtd"
   xmlns:inkscape="http://www.inkscape.org/namespaces/inkscape"
   width="12.500312mm"
   height="12.367234mm"
   viewBox="0 0 12.500312 12.367234"
   version="1.1"
   id="svg3762"
   inkscape:version="0.92.4 (5da689c313, 2019-01-14)"
   sodipodi:docname="speed.svg">
  <defs
     id="defs3756" />
  <sodipodi:namedview
     id="base"
     pagecolor="#ffffff"
     bordercolor="#666666"
     borderopacity="1.0"
     inkscape:pageopacity="0.0"
     inkscape:pageshadow="2"
     inkscape:zoom="0.35"
     inkscape:cx="590.76549"
     inkscape:cy="163.37114"
     inkscape:document-units="mm"
     inkscape:current-layer="layer1"
     showgrid="false"
     inkscape:window-width="1920"
     inkscape:window-height="1027"
     inkscape:window-x="-8"
     inkscape:window-y="389"
     inkscape:window-maximized="1" />
  <metadata
     id="metadata3759">
    <rdf:RDF>
      <cc:Work
         rdf:about="">
        <dc:format>image/svg+xml</dc:format>
        <dc:type
           rdf:resource="http://purl.org/dc/dcmitype/StillImage" />
        <dc:title></dc:title>
      </cc:Work>
    </rdf:RDF>
  </metadata>
  <g
     inkscape:label="Layer 1"
     inkscape:groupmode="layer"
     id="layer1"
     transform="translate(173.31563,-179.69138)">
    <path
       style="fill:#000000;fill-opacity:1;stroke-width:0.26458338"
       inkscape:connector-curvature="0"
       d="m -160.81611,179.69138 -4.35066,0.033 c -0.4089,0.73914 -0.89677,1.39116 -1.43224,2.0021 0.15889,0.0396 0.31926,0.079 0.4767,0.11881 l 0.362,0.0911 -0.22551,0.29726 c -1.33312,1.75653 -1.1802,3.75292 -0.72348,5.64426 l -0.48047,0.11575 c -0.44524,-1.84407 -0.62214,-3.91418 0.59868,-5.75642 -2.32885,-0.57836 -4.85547,-1.14722 -6.69997,-2.36079 -0.0468,0.12911 -0.0267,0.26907 0.0599,0.4551 0.0642,0.13796 0.1723,0.29168 0.32101,0.4521 1.40576,1.00206 3.4497,1.74182 5.0183,1.98541 l -0.0758,0.48777 c -1.63551,-0.254 -3.69255,-0.98777 -5.18377,-2.03978 0.0161,0.15728 0.0691,0.32732 0.16888,0.51134 0.18294,0.33698 0.50969,0.69967 0.94401,1.02764 0.0222,0.0167 0.0449,0.0335 0.0676,0.0501 1.12528,0.59896 2.4776,1.02783 3.72151,1.11367 l -0.034,0.49244 c -1.61691,-0.11156 -3.34055,-0.74536 -4.64529,-1.60444 0.0272,0.12991 0.086,0.2746 0.18206,0.43264 0.1948,0.32064 0.53091,0.6731 0.95803,0.99511 1.03825,0.47114 2.15785,0.86998 3.4011,0.96335 l -0.037,0.49223 c -1.48353,-0.1114 -2.78003,-0.6271 -3.94273,-1.18087 0.0979,0.5183 0.45707,0.9086 1.02931,1.23625 0.70916,0.40604 1.72568,0.67152 2.79825,0.82746 l 0.19719,0.0287 0.0145,0.19855 c 0.0283,0.40965 0.12074,0.60305 0.2576,0.83654 l -0.42652,0.24928 c -0.13039,-0.22255 -0.24554,-0.48731 -0.29859,-0.85673 -0.85422,-0.13442 -1.67654,-0.33321 -2.36308,-0.6409 -0.17029,0.20471 -0.33805,0.41574 -0.50225,0.63479 0.4367,0.6275 0.80914,1.13669 1.39565,1.73742 l 0.71648,-0.25005 0.24706,-0.0858 0.0718,0.25171 c 0.39838,1.40125 1.57504,2.4713 3.00377,3.00613 1.26941,0.47517 2.72372,0.51857 3.96812,0.0161 -1.81592,-0.99255 -3.03082,-3.26748 -3.59049,-5.27927 l -0.0298,-0.10979 0.0628,-0.0942 c 1.14687,-1.71339 3.19144,-3.15033 5.00013,-3.80828 v -2.71646 z"
       id="path875" />
  </g>
</svg>
