<?xml version="1.0" encoding="UTF-8" standalone="no"?>
<!-- Created with Inkscape (http://www.inkscape.org/) -->

<svg
   xmlns:dc="http://purl.org/dc/elements/1.1/"
   xmlns:cc="http://creativecommons.org/ns#"
   xmlns:rdf="http://www.w3.org/1999/02/22-rdf-syntax-ns#"
   xmlns:svg="http://www.w3.org/2000/svg"
   xmlns="http://www.w3.org/2000/svg"
   xmlns:sodipodi="http://sodipodi.sourceforge.net/DTD/sodipodi-0.dtd"
   xmlns:inkscape="http://www.inkscape.org/namespaces/inkscape"
   width="12.69261mm"
   height="12.67816mm"
   viewBox="0 0 12.69261 12.67816"
   version="1.1"
   id="svg2025"
   inkscape:version="0.92.4 (5da689c313, 2019-01-14)"
   sodipodi:docname="target.svg">
  <defs
     id="defs2019" />
  <sodipodi:namedview
     id="base"
     pagecolor="#ffffff"
     bordercolor="#666666"
     borderopacity="1.0"
     inkscape:pageopacity="0.0"
     inkscape:pageshadow="2"
     inkscape:zoom="0.35"
     inkscape:cx="876.84318"
     inkscape:cy="-447.46985"
     inkscape:document-units="mm"
     inkscape:current-layer="layer1"
     showgrid="false"
     inkscape:window-width="1920"
     inkscape:window-height="1027"
     inkscape:window-x="-8"
     inkscape:window-y="389"
     inkscape:window-maximized="1" />
  <metadata
     id="metadata2022">
    <rdf:RDF>
      <cc:Work
         rdf:about="">
        <dc:format>image/svg+xml</dc:format>
        <dc:type
           rdf:resource="http://purl.org/dc/dcmitype/StillImage" />
        <dc:title></dc:title>
      </cc:Work>
    </rdf:RDF>
  </metadata>
  <g
     inkscape:label="Layer 1"
     inkscape:groupmode="layer"
     id="layer1"
     transform="translate(249.00702,-17.76211)">
    <path
       id="path836"
       d="m -242.66072,17.76211 c -3.50501,0 -6.3463,2.83806 -6.3463,6.339081 0,3.50102 2.84129,6.339079 6.3463,6.339079 3.50501,0 6.34631,-2.838059 6.34631,-6.339079 0,-3.501021 -2.8413,-6.339081 -6.34631,-6.339081 z m 0,1.58477 c 2.62869,0 4.75974,2.12862 4.75974,4.754311 0,2.62569 -2.13105,4.754309 -4.75974,4.754309 -2.6287,0 -4.75973,-2.128619 -4.75973,-4.754309 0,-2.625691 2.13103,-4.754311 4.75973,-4.754311 z m -0.39664,0.79239 a 0.39664442,0.39619259 0 0 0 -0.39664,0.396191 v 0.79238 a 0.39664442,0.39619259 0 0 0 0.39664,0.3962 h 0.79329 a 0.39664442,0.39619259 0 0 0 0.39664,-0.3962 v -0.79238 a 0.39664442,0.39619259 0 0 0 -0.39664,-0.396191 z m 0.44291,2.377941 a 1.5865777,1.5847704 0 0 0 -1.63284,1.58398 1.5865777,1.5847704 0 0 0 3.17314,0 1.5865777,1.5847704 0 0 0 -1.5403,-1.58398 z m -3.61607,0.7916 a 0.39664442,0.39619259 0 0 0 -0.39664,0.39619 v 0.79238 a 0.39664442,0.39619259 0 0 0 0.39664,0.39619 h 0.79328 a 0.39664442,0.39619259 0 0 0 0.39665,-0.39619 v -0.79238 a 0.39664442,0.39619259 0 0 0 -0.39665,-0.39619 z m 6.3463,0 a 0.39664442,0.39619259 0 0 0 -0.39664,0.39619 v 0.79238 a 0.39664442,0.39619259 0 0 0 0.39664,0.39619 h 0.79331 a 0.39664442,0.39619259 0 0 0 0.39664,-0.39619 v -0.79238 a 0.39664442,0.39619259 0 0 0 -0.39664,-0.39619 z m -3.17314,3.16953 a 0.39664442,0.39619259 0 0 0 -0.39664,0.3962 v 0.79238 a 0.39664442,0.39619259 0 0 0 0.39664,0.396189 h 0.79329 a 0.39664442,0.39619259 0 0 0 0.39664,-0.396189 v -0.79238 a 0.39664442,0.39619259 0 0 0 -0.39664,-0.3962 z"
       inkscape:connector-curvature="0"
       style="fill:#000000;fill-opacity:1;stroke-width:0.26458338" />
  </g>
</svg>
